<?xml version="1.0" encoding="UTF-8" standalone="no"?><svg xmlns="http://www.w3.org/2000/svg" xmlns:xlink="http://www.w3.org/1999/xlink" contentStyleType="text/css" height="839px" preserveAspectRatio="none" style="width:1000px;height:839px;background:#FFFFFF;" version="1.1" viewBox="0 0 1000 839" width="1000px" zoomAndPan="magnify"><defs/><g><!--MD5=[044cc4de000b6e9664bc4b30488d0f9b]
cluster Microservice\n VCenter Configuration Service--><g id="cluster_Microservice\n VCenter Configuration Service"><rect fill="none" height="130" rx="2.5" ry="2.5" style="stroke:#181818;stroke-width:1.0;" width="655" x="7" y="340"/><rect fill="none" height="10" style="stroke:#181818;stroke-width:1.0;" width="15" x="642" y="345"/><rect fill="none" height="2" style="stroke:#181818;stroke-width:1.0;" width="4" x="640" y="347"/><rect fill="none" height="2" style="stroke:#181818;stroke-width:1.0;" width="4" x="640" y="351"/><text fill="#000000" font-family="sans-serif" font-size="14" font-weight="bold" lengthAdjust="spacing" textLength="93" x="288" y="367.5332">Microservice</text><text fill="#000000" font-family="sans-serif" font-size="14" font-weight="bold" lengthAdjust="spacing" textLength="215" x="229" y="385.1426">VCenter Configuration Service</text></g><!--MD5=[2183d726f46dd1e71877ada16a59584d]
cluster Microservice\n VCenter Discovery Service--><g id="cluster_Microservice\n VCenter Discovery Service"><rect fill="none" height="130" rx="2.5" ry="2.5" style="stroke:#181818;stroke-width:1.0;" width="576" x="363" y="703"/><rect fill="none" height="10" style="stroke:#181818;stroke-width:1.0;" width="15" x="919" y="708"/><rect fill="none" height="2" style="stroke:#181818;stroke-width:1.0;" width="4" x="917" y="710"/><rect fill="none" height="2" style="stroke:#181818;stroke-width:1.0;" width="4" x="917" y="714"/><text fill="#000000" font-family="sans-serif" font-size="14" font-weight="bold" lengthAdjust="spacing" textLength="93" x="604.5" y="730.5332">Microservice</text><text fill="#000000" font-family="sans-serif" font-size="14" font-weight="bold" lengthAdjust="spacing" textLength="189" x="558.5" y="748.1426">VCenter Discovery Service</text></g><text fill="#000000" font-family="sans-serif" font-size="14" lengthAdjust="spacing" textLength="43" x="575.5" y="318.9238">Grpc.1</text><rect fill="#F1F1F1" height="12" style="stroke:#181818;stroke-width:1.5;" width="12" x="591" y="334"/><text fill="#000000" font-family="sans-serif" font-size="14" lengthAdjust="spacing" textLength="25" x="631.5" y="318.9238">Pub</text><rect fill="#F1F1F1" height="12" style="stroke:#181818;stroke-width:1.5;" width="12" x="638" y="334"/><text fill="#000000" font-family="sans-serif" font-size="14" lengthAdjust="spacing" textLength="41" x="529.5" y="318.9238">Rest.1</text><rect fill="#F1F1F1" height="12" style="stroke:#181818;stroke-width:1.5;" width="12" x="544" y="334"/><!--MD5=[49d3ad8fc10de3b6f2350e959b4fc15b]
entity SQL Server CS--><g id="elem_SQL Server CS"><rect fill="#F1F1F1" height="47.6094" rx="2.5" ry="2.5" style="stroke:#181818;stroke-width:0.5;" width="137" x="234.5" y="406"/><rect fill="#F1F1F1" height="10" style="stroke:#181818;stroke-width:0.5;" width="15" x="351.5" y="411"/><rect fill="#F1F1F1" height="2" style="stroke:#181818;stroke-width:0.5;" width="4" x="349.5" y="413"/><rect fill="#F1F1F1" height="2" style="stroke:#181818;stroke-width:0.5;" width="4" x="349.5" y="417"/><text fill="#000000" font-family="sans-serif" font-size="14" lengthAdjust="spacing" textLength="97" x="249.5" y="440.5332">SQL Server CS</text></g><!--MD5=[4a2653cea4466781b3d4689d053c8a0c]
entity Configuration Service--><g id="elem_Configuration Service"><rect fill="#F1F1F1" height="47.6094" rx="2.5" ry="2.5" style="stroke:#181818;stroke-width:0.5;" width="176" x="23" y="406"/><rect fill="#F1F1F1" height="10" style="stroke:#181818;stroke-width:0.5;" width="15" x="179" y="411"/><rect fill="#F1F1F1" height="2" style="stroke:#181818;stroke-width:0.5;" width="4" x="177" y="413"/><rect fill="#F1F1F1" height="2" style="stroke:#181818;stroke-width:0.5;" width="4" x="177" y="417"/><text fill="#000000" font-family="sans-serif" font-size="14" lengthAdjust="spacing" textLength="136" x="38" y="440.5332">Configuration Service</text></g><text fill="#000000" font-family="sans-serif" font-size="14" lengthAdjust="spacing" textLength="41" x="900.5" y="681.9238">Rest.2</text><rect fill="#F1F1F1" height="12" style="stroke:#181818;stroke-width:1.5;" width="12" x="915" y="697"/><text fill="#000000" font-family="sans-serif" font-size="14" lengthAdjust="spacing" textLength="43" x="775.5" y="681.9238">Grpc.2</text><rect fill="#F1F1F1" height="12" style="stroke:#181818;stroke-width:1.5;" width="12" x="791" y="697"/><text fill="#000000" font-family="sans-serif" font-size="14" lengthAdjust="spacing" textLength="44" x="822" y="681.9238">Subscr</text><rect fill="#F1F1F1" height="12" style="stroke:#181818;stroke-width:1.5;" width="12" x="838" y="697"/><!--MD5=[7920d5fcaed23b190b4fb88b21a874d5]
entity SQL Server DS--><g id="elem_SQL Server DS"><rect fill="#F1F1F1" height="47.6094" rx="2.5" ry="2.5" style="stroke:#181818;stroke-width:0.5;" width="137" x="567.5" y="769"/><rect fill="#F1F1F1" height="10" style="stroke:#181818;stroke-width:0.5;" width="15" x="684.5" y="774"/><rect fill="#F1F1F1" height="2" style="stroke:#181818;stroke-width:0.5;" width="4" x="682.5" y="776"/><rect fill="#F1F1F1" height="2" style="stroke:#181818;stroke-width:0.5;" width="4" x="682.5" y="780"/><text fill="#000000" font-family="sans-serif" font-size="14" lengthAdjust="spacing" textLength="97" x="582.5" y="803.5332">SQL Server DS</text></g><!--MD5=[fd9d224536868f039a6cb884c95f013c]
entity Discovery Service--><g id="elem_Discovery Service"><rect fill="#F1F1F1" height="47.6094" rx="2.5" ry="2.5" style="stroke:#181818;stroke-width:0.5;" width="153" x="379.5" y="769"/><rect fill="#F1F1F1" height="10" style="stroke:#181818;stroke-width:0.5;" width="15" x="512.5" y="774"/><rect fill="#F1F1F1" height="2" style="stroke:#181818;stroke-width:0.5;" width="4" x="510.5" y="776"/><rect fill="#F1F1F1" height="2" style="stroke:#181818;stroke-width:0.5;" width="4" x="510.5" y="780"/><text fill="#000000" font-family="sans-serif" font-size="14" lengthAdjust="spacing" textLength="113" x="394.5" y="803.5332">Discovery Service</text></g><!--MD5=[e6686c172351e6dc0f366c2959fbb34a]
entity clients--><g id="elem_clients"><ellipse cx="771" cy="14" fill="#F1F1F1" rx="8" ry="8" style="stroke:#181818;stroke-width:0.5;"/><text fill="#000000" font-family="sans-serif" font-size="14" lengthAdjust="spacing" textLength="40" x="751" y="45.5332">clients</text></g><!--MD5=[cbb8739ea188949496da5cf57df98c74]
entity API Gateway--><g id="elem_API Gateway"><rect fill="#F1F1F1" height="47.6094" rx="2.5" ry="2.5" style="stroke:#181818;stroke-width:0.5;" width="120" x="711" y="165"/><rect fill="#F1F1F1" height="10" style="stroke:#181818;stroke-width:0.5;" width="15" x="811" y="170"/><rect fill="#F1F1F1" height="2" style="stroke:#181818;stroke-width:0.5;" width="4" x="809" y="172"/><rect fill="#F1F1F1" height="2" style="stroke:#181818;stroke-width:0.5;" width="4" x="809" y="176"/><text fill="#000000" font-family="sans-serif" font-size="14" lengthAdjust="spacing" textLength="80" x="726" y="199.5332">API Gateway</text></g><!--MD5=[bbe5a0e8b93bba7f5ccbdf5da03f0240]
entity RabbitMQ Message Bus--><g id="elem_RabbitMQ Message Bus"><rect fill="#F1F1F1" height="47.6094" rx="2.5" ry="2.5" style="stroke:#181818;stroke-width:0.5;" width="192" x="748" y="406"/><rect fill="#F1F1F1" height="10" style="stroke:#181818;stroke-width:0.5;" width="15" x="920" y="411"/><rect fill="#F1F1F1" height="2" style="stroke:#181818;stroke-width:0.5;" width="4" x="918" y="413"/><rect fill="#F1F1F1" height="2" style="stroke:#181818;stroke-width:0.5;" width="4" x="918" y="417"/><text fill="#000000" font-family="sans-serif" font-size="14" lengthAdjust="spacing" textLength="152" x="763" y="440.5332">RabbitMQ Message Bus</text></g><!--MD5=[d02a0469648c72fafb8ca5d3a43c79c1]
link clients to API Gateway--><g id="link_clients_API Gateway"><path d="M771,23.34 C771,48.72 771,125.63 771,164.69 " fill="none" id="clients-API Gateway" style="stroke:#181818;stroke-width:1.0;"/></g><!--MD5=[1879ff00384ea17d0f0a26f3818a8e0c]
link Pub to RabbitMQ Message Bus--><g id="link_Pub_RabbitMQ Message Bus"><path d="M650.2,343.73 C670.64,352.72 737.38,382.09 786.85,403.85 " fill="none" id="Pub-to-RabbitMQ Message Bus" style="stroke:#181818;stroke-width:1.0;"/><polygon fill="#181818" points="791.58,405.94,784.9569,398.6506,787.0045,403.9239,781.7312,405.9715,791.58,405.94" style="stroke:#181818;stroke-width:1.0;"/></g><!--MD5=[4e3388ce95d354cc378b1e7e8aef2f49]
link RabbitMQ Message Bus to Subscr--><g id="link_RabbitMQ Message Bus_Subscr"><path d="M844,454.11 C844,510.22 844,652.01 844,691.59 " fill="none" id="RabbitMQ Message Bus-to-Subscr" style="stroke:#181818;stroke-width:1.0;"/><polygon fill="#181818" points="844,696.67,848,687.67,844,691.67,840,687.67,844,696.67" style="stroke:#181818;stroke-width:1.0;"/></g><!--MD5=[4b94becd689c7641c5f244323c7c7d8f]
link API Gateway to Rest.1--><g id="link_API Gateway_Rest.1"><path d="M736.47,213.28 C685.3,247.78 592.03,310.67 560.63,331.83 " fill="none" id="API Gateway-to-Rest.1" style="stroke:#181818;stroke-width:1.0;stroke-dasharray:7.0,7.0;"/><polygon fill="#181818" points="556.14,334.86,565.8393,333.1499,560.287,332.0668,561.3701,326.5146,556.14,334.86" style="stroke:#181818;stroke-width:1.0;"/></g><!--MD5=[6daf8c21b3b1fd314be595dd24d7c04d]
link API Gateway to Rest.2--><g id="link_API Gateway_Rest.2"><path d="M831.08,202.91 C896.82,220.98 993,260.79 993,339 C993,339 993,339 993,576 C993,625.66 950.32,673.54 930.68,692.94 " fill="none" id="API Gateway-to-Rest.2" style="stroke:#181818;stroke-width:1.0;stroke-dasharray:7.0,7.0;"/><polygon fill="#181818" points="926.65,696.85,935.9051,693.4822,930.2492,693.3793,930.3521,687.7234,926.65,696.85" style="stroke:#181818;stroke-width:1.0;"/></g><!--MD5=[e8dd048cb88b40d7db8523fc7ed262ab]
link Grpc.1 to Grpc.2--><g id="link_Grpc.1_Grpc.2"><path d="M603.36,345.23 C615.69,353.76 642.97,374.24 658,398 C686.93,443.73 695,459.89 695,514 C695,514 695,514 695,576 C695,637.35 768.97,685.58 790.92,698.55 " fill="none" id="Grpc.1-Grpc.2" style="stroke:#181818;stroke-width:1.0;"/></g><!--MD5=[5b598376f71b6d31ffc54fd14fd69216]
@startuml VCenter Configuration and Discovery

clients - - - [API Gateway]

component "Microservice\n VCenter Configuration Service" {
    port Grpc.1
    port Pub
    port Rest.1
    component [SQL Server CS]
    component [Configuration Service]
}

component [RabbitMQ Message Bus]
Pub - -> [RabbitMQ Message Bus]

component "Microservice\n VCenter Discovery Service" {
    port Rest.2
    port Grpc.2
    port Subscr
    component [SQL Server DS]
    component [Discovery Service]
}

[RabbitMQ Message Bus] - - - - -> Subscr
[API Gateway] ...> Rest.1
[API Gateway] ....> Rest.2
Grpc.1 - - - Grpc.2

@enduml

PlantUML version 1.2022.7(Mon Aug 22 20:01:30 MSK 2022)
(GPL source distribution)
Java Runtime: Java(TM) SE Runtime Environment
JVM: Java HotSpot(TM) Client VM
Default Encoding: Cp1252
Language: en
Country: US
--></g></svg>